<?xml version="1.0" encoding="utf-8"?>
<!-- Generator: Adobe Illustrator 16.0.0, SVG Export Plug-In . SVG Version: 6.00 Build 0)  -->
<!DOCTYPE svg PUBLIC "-//W3C//DTD SVG 1.1//EN" "http://www.w3.org/Graphics/SVG/1.1/DTD/svg11.dtd">
<svg version="1.1" id="Layer_1" xmlns="http://www.w3.org/2000/svg" xmlns:xlink="http://www.w3.org/1999/xlink" x="0px" y="0px"
	 width="149px" height="148.5px" viewBox="0 0 149 148.5" enable-background="new 0 0 149 148.5" xml:space="preserve">
<rect x="61.25" y="62.625" width="26.458" height="23.208"/>
<rect x="61.112" y="61.792" fill="#FFFFFF" width="25.888" height="24.958"/>
<circle fill="#231F20" stroke="#000000" stroke-miterlimit="10" cx="74.613" cy="74.452" r="72"/>
<path fill="#FFFFFF" d="M115.562,62.821l-29.539-29.54c-3.131,2.937-7.33,4.749-11.959,4.749c-4.313,0-8.255-1.567-11.306-4.154
	L33.159,63.475c2.587,3.05,4.154,6.992,4.154,11.306c0,4.188-1.475,8.029-3.929,11.042l29.638,29.638
	c3.012-2.454,6.853-3.929,11.041-3.929c4.505,0,8.601,1.718,11.703,4.515l29.563-29.562c-2.797-3.103-4.515-7.195-4.515-11.701
	C110.814,70.149,112.625,65.951,115.562,62.821z M86.939,62.25V46.869l15.75,15.75H88.25v23.25h14.439l-15.75,15.75V86.375h-24.75
	v15.244l-15.75-15.75h15.436v-23.25H46.439l15.75-15.75V62.25"/>
<circle fill="#FFFFFF" cx="74.361" cy="19.202" r="11.25"/>
<circle fill="#FFFFFF" cx="74.361" cy="129.702" r="11.25"/>
<circle fill="#FFFFFF" cx="19.55" cy="74.664" r="11.25"/>
<circle fill="#FFFFFF" cx="129.675" cy="74.664" r="11.25"/>
<rect x="74.613" y="61.792" fill="#FFFFFF" width="0" height="0.827"/>
<rect x="74.361" y="85.914" fill="#FFFFFF" width="0" height="2.336"/>
<path fill="#FFFFFF" d="M62.5,86.75L62.5,86.75L62.5,86.75z"/>
<path fill="#FFFFFF" d="M74.406,55.813c9.943,0,18,8.282,18,18.501c0,10.213-8.057,18.499-18,18.499c-9.94,0-18-8.285-18-18.499
	C56.406,64.095,64.466,55.813,74.406,55.813z"/>
<path fill="#FFFFFF" stroke="#000000" stroke-width="3" stroke-miterlimit="10" d="M87.05,81.115
	c-2.37,4.109-6.809,6.874-11.891,6.874c-7.578,0-13.719-6.146-13.719-13.72c0-7.576,6.141-13.717,13.719-13.717
	c5.022,0,9.416,2.7,11.805,6.729"/>
<polygon fill="#231F20" points="89.191,71.019 83.661,69.169 89.786,65.33 "/>
<g>
	<path fill="#231F20" d="M66.966,78.164l3.881-0.365c0.232,1.264,0.707,2.189,1.422,2.781c0.713,0.592,1.678,0.887,2.891,0.887
		c1.283,0,2.252-0.264,2.904-0.789c0.648-0.527,0.977-1.143,0.977-1.848c0-0.451-0.137-0.836-0.412-1.154
		c-0.273-0.318-0.752-0.594-1.436-0.828c-0.467-0.158-1.531-0.438-3.193-0.836c-2.137-0.514-3.639-1.145-4.502-1.893
		c-1.211-1.053-1.818-2.336-1.818-3.85c0-0.974,0.285-1.886,0.855-2.734c0.57-0.849,1.395-1.494,2.467-1.938
		c1.072-0.443,2.369-0.666,3.889-0.666c2.479,0,4.345,0.526,5.6,1.578c1.252,1.054,1.909,2.458,1.973,4.215l-3.987,0.171
		c-0.17-0.984-0.537-1.69-1.099-2.121c-0.562-0.432-1.403-0.646-2.527-0.646c-1.158,0-2.066,0.231-2.723,0.691
		c-0.422,0.297-0.633,0.692-0.633,1.188c0,0.454,0.197,0.841,0.592,1.162c0.504,0.41,1.727,0.836,3.668,1.279
		c1.938,0.445,3.375,0.904,4.306,1.378c0.931,0.474,1.655,1.123,2.185,1.945c0.524,0.82,0.787,1.838,0.787,3.047
		c0,1.096-0.314,2.123-0.943,3.08s-1.521,1.668-2.668,2.133c-1.149,0.465-2.582,0.699-4.299,0.699c-2.498,0-4.416-0.561-5.754-1.68
		C68.024,81.936,67.228,80.305,66.966,78.164z"/>
</g>
</svg>
