<?xml version="1.0" encoding="utf-8"?>
<!-- Generator: Adobe Illustrator 16.0.4, SVG Export Plug-In . SVG Version: 6.00 Build 0)  -->
<!DOCTYPE svg PUBLIC "-//W3C//DTD SVG 1.1//EN" "http://www.w3.org/Graphics/SVG/1.1/DTD/svg11.dtd">
<svg version="1.1" id="Layer_1" xmlns="http://www.w3.org/2000/svg" xmlns:xlink="http://www.w3.org/1999/xlink" x="0px" y="0px"
	 width="200px" height="200px" viewBox="0 0 200 200" enable-background="new 0 0 200 200" xml:space="preserve">
<circle fill="#65A6A2" cx="100" cy="100" r="100"/>
<path fill-rule="evenodd" clip-rule="evenodd" fill="#FFFFFF" d="M191.523,98.817c-2.084-1.021-2.949-1.328-3.404-1.527
	c-1.09-0.474-3.092-1.709-3.812-2.291c-0.723-0.582-3.529-2.629-4.896-3.064c-1.365-0.436-4.678-1.734-8.176-1.539
	c-3.502,0.195-5.17,0.242-7.848,0.693c-2.678,0.453-7.523,1.414-13.748-0.521c-6.23-1.934-16.518-5.823-26.678-8.704
	c-10.162-2.882-12.469-3.905-19.768-4.925c-7.293-1.02-14.068-0.974-20.671-0.073c-6.602,0.898-12.458,1.919-21.084,6.622
	c-8.628,4.703-10.222,5.645-13.194,8.084c-2.974,2.441-7.451,6.612-8.545,7.316c-1.095,0.703-4.338,2.084-5.207,2.31
	c-0.868,0.225-2.654,1.353-0.657,1.45c1.996,0.1,2.624-0.15,2.642,0.207c0.019,0.355-5.515,4.954-7.569,6.406
	c-2.056,1.451-5.859,3.883-7.588,4.718c-1.726,0.835-2.433,1.361-3.053,2.171c-0.621,0.807-0.476,1.73,0.471,1.472
	c0.946-0.259,0.849-0.347,1.199-0.359c1.508-1.094,5.367-4.249,6.357-4.825c-2.088,1.916-4.753,4.611-6.468,6.055
	c-1.714,1.441-4.339,3.328-5.072,4.365c-0.733,1.041-2.729,3.318-3.511,3.799c-0.787,0.475-3.225,1.732-2.307,2.119
	c0.915,0.385,1.171,0.379,1.425,0.283c0.256-0.094,0.392-0.32,0.644-0.229c0.251,0.094,2.039-0.273,2.415-0.438
	c0.377-0.166,0.65,0.057,0.934-0.061c0.285-0.113,3.457-1.457,4.908-2.57c1.453-1.115,2.965-2.133,3.592-2.582
	c1.449,0.002,5.267-0.975,7.729-2.471c2.466-1.495,8.54-6.164,10.819-8.496c2.281-2.331,2.603-2.634,2.913-2.912
	c0.312-0.279,0.877-0.879,4.16-1.021c3.287-0.141,9.86-0.668,13.608-0.221c3.748,0.448,9.258,0.871,17.775,2.561
	c2.934,0.582,8.517,1.69,8.978,1.443c1.384-0.744,6.4-2.084,6.4-2.084s-1.833,0.906-3.202,1.705
	c-0.538,0.312-2.14,1.044-2.536,1.619c-0.398,0.58-2.268,1.528-2.789,1.404c-0.52-0.123-1.583,0.496-1.922,0.756
	c-0.338,0.256-1.271,1.066-2.339,1.018c-1.068-0.05-2.471,0.2-2.796,0.652c-0.327,0.455-0.152,0.72-1.312,1.072
	c-1.16,0.35-2.918-0.01-4.756,0.188c-1.841,0.198-1.978,1.152-1.295,1.936c0.681,0.785,3.595,1.938,8.499,2.805
	c4.905,0.863,9.428,0.059,10.876-0.072c1.451-0.133,7.079-1.521,8.083-1.824c1.006-0.301,4.365-1.975,5.023-2.176
	c0.656-0.201,2.455-0.434,3.119-0.559c0.662-0.12,5.312-1.367,6.908-1.57c0.893-0.116,2.539-0.496,4.01-0.906
	c1.471-0.412,5.545-1.786,6.779-2.486c2.66-1.515,4.336,0.034,4.305,0.745c-0.035,0.712-0.719,1.071-2.146,0.946
	c-2.297-0.199-5.021,0.698-6.479,1.029s-2.293,0.798-5.676,1.235c2.596,0.417,9.523,1.782,13.643,1.917
	c4.121,0.135,14.229,0.412,21.42-1.477c7.188-1.891,17.871-7.645,19.828-8.607c1.959-0.965,4.502-2.035,7.639-2.467
	c3.135-0.43,6.672-1.039,7.908-1.168c1.238-0.127,2.422-0.621,2.857-0.842c0.438-0.225,1.131-0.774,1.613-1.232
	c0.482-0.455,1.078-0.709,1.348-0.932c0.273-0.223,0.492-0.442,0.338-0.772c-0.475-1.009,0.115-0.343,0.266-0.694
	C192.988,100.413,193.449,99.761,191.523,98.817z M175.941,96.083c-0.893,0.449-1.904,0.388-2.721,0.374
	c-0.846-0.015-1.094-0.127-1.502-0.288c-0.404-0.162-1.111-0.489-2-0.436c-0.889,0.055-0.908,0.137-1.402,0.09
	c-0.496-0.046-0.328-0.442,0.336-0.584c0.668-0.143,1.529-0.393,2.145-0.273s1.094,0.092,1.467,0.073
	c0.428-0.021,0.818-0.224,1.736-0.367c0.918-0.143,1.955,0.024,2.23,0.454C176.465,95.493,176.33,95.888,175.941,96.083z
	 M190,100.534c0.16,0,0.291,0.131,0.291,0.293s-0.131,0.292-0.291,0.292c-0.164,0-0.293-0.13-0.293-0.292
	S189.836,100.534,190,100.534z M188.756,100.007c0.213,0,0.383,0.171,0.383,0.383c0,0.213-0.17,0.385-0.383,0.385
	s-0.385-0.172-0.385-0.385C188.371,100.178,188.543,100.007,188.756,100.007z M179.533,96.137c0.939,0.183,1.238,0.081,1.502-0.024
	c0.268-0.107,0.359-0.301,0.713-0.436c0.357-0.135,0.816-0.201,1.375-0.209c0.584-0.008,0.93,0.196,0.988,0.433
	c0.084,0.342,0.156,0.337,0.305,0.431s0.287,0.176,0.219,0.266c-0.092,0.123-0.477,0.056-0.504,0.152
	c-0.068,0.24-0.445,0.584-1.119,0.489c-0.914-0.128-1.273-0.382-1.383-0.521s-0.291-0.145-0.574-0.15
	c-0.281-0.007-0.758-0.074-1.193-0.139C179.424,96.364,179.158,96.065,179.533,96.137z M190.363,102.167
	c-0.412,0.506-0.588,0.654-0.922,0.832c-0.318,0.172-0.6,0.139-0.219-0.236c0.381-0.377,0.543-0.479,0.58-0.652
	c0.035-0.173-0.236-0.248-0.572,0.027s-1.057,0.554-1.379,0.643c-0.311,0.086-0.65-0.104-0.244-0.289
	c0.242-0.109,0.434-0.191,0.699-0.375c0.277-0.189,0.107-0.425-0.205-0.27c-0.311,0.158-0.746,0.388-1.484,0.606
	c-1.068,0.317-2.734,0.765-3.604,0.984c-0.764,0.194-1.131,0.275-1.52,0.388c-0.389,0.11-0.693-0.178-0.209-0.363
	c0.48-0.186,2.463-0.722,2.922-0.851c0.873-0.245,1.752-0.536,2.174-0.674c0.402-0.132,0.746-0.293,0.998-0.425
	c0.234-0.125,0.166-0.319-0.078-0.307c-1.789,0.66-5.762,1.563-6.359,1.633c-0.52,0.061-0.75,0.076-0.816-0.012
	c-0.092-0.121,0.117-0.244,0.266-0.274c1.057-0.208,2.012-0.422,2.871-0.636c0.307-0.08,0.273-0.193,0.102-0.191
	c-1.676,0.195-3.439,0.33-4.842,0.381c-0.004,0-0.006,0-0.01,0c-0.133,0-0.338-0.027-0.344-0.161
	c-0.004-0.138,0.291-0.22,0.43-0.225c2.799-0.103,8.135-1.011,8.994-1.243c0.053-0.014,0.189,0.03,0.205,0.041
	c0.135,0.053,0.227,0.173,0.227,0.343c0,0.384,0.572,0.263,0.748,0.233c0.18-0.031,0.455-0.11,0.582,0.076
	c0.127,0.189,0.107,0.291,0.328,0.313c0.322,0.031,0.598-0.11,0.771,0.06C190.629,101.715,190.615,101.86,190.363,102.167z"/>
</svg>
