<?xml version="1.0" encoding="utf-8"?>
<!-- Generator: Adobe Illustrator 16.0.4, SVG Export Plug-In . SVG Version: 6.00 Build 0)  -->
<!DOCTYPE svg PUBLIC "-//W3C//DTD SVG 1.1//EN" "http://www.w3.org/Graphics/SVG/1.1/DTD/svg11.dtd">
<svg version="1.1" id="Layer_1" xmlns="http://www.w3.org/2000/svg" xmlns:xlink="http://www.w3.org/1999/xlink" x="0px" y="0px"
	 width="760px" height="760px" viewBox="0 0 760 760" enable-background="new 0 0 760 760" xml:space="preserve">
<path fill-rule="evenodd" clip-rule="evenodd" fill="#00A79D" d="M283.076,169.19c50.482,0,100.98,0,151.464,0
	c58.256-0.002,103.149-0.477,129.13,32.08c25.14,31.502,23.145,74.582,23.146,131.16c0,36.137,0,72.283,0,108.421
	c0.001,30.232,1.059,61.739-6.903,84.462c-6.374,18.19-19.764,34.302-34.922,43.855c-29.362,18.507-79.644,15.836-127.911,15.837
	c-34.377,0-68.765,0-103.142,0c-29.858,0.002-60.806,0.959-83.244-6.903c-17.463-6.119-32.407-18.561-42.231-32.485
	c-16.811-23.827-17.461-60.711-17.461-101.924c0-42.091,0-84.195,0-126.287c-0.001-26.991-1.451-55.701,4.061-77.965
	c3.504-14.157,9.392-25.737,17.055-35.734c12.48-16.282,31.307-26.767,55.226-31.673
	C259.252,171.085,271.166,170.137,283.076,169.19z"/>
<path fill="#FFFFFF" d="M257.316,411.93c-4.37-5.828-4.088-7.022-5.399-9.643c-1.929-3.855-6.558-13.69-10.219-22.945
	c-3.664-9.254-1.736-13.883-1.736-19.668c0-5.783-2.123-12.338-1.928-24.678c0.192-12.342,8.097-30.467,11.185-37.407
	c3.083-6.942,11.568-14.656,13.11-16.391c1.542-1.736,1.258-2.693,2.582-4.413c0.686-0.891,3.397-2.335,3.975-3.3
	c0.577-0.964,2.314-5.786,3.856-6.748c-1.542-3.086-0.192-5.012,0.578-6.169c-0.193-0.773-0.386-2.508-0.963-4.628
	c-0.58-2.123-1.737-11.185-0.964-14.848c0.769-3.663,2.506-8.098,3.278-9.641c0.769-1.544,3.856-3.858,6.941-4.628
	c3.086-0.771,3.663,0,4.241,1.157c0.58,1.158,5.593,6.251,7.906,10.413c3.858,6.941,3.918,8.799,4.82,9.641
	c1.863,1.736,4.115,1.089,4.822-0.578c0.707-1.67-0.668-2.906-1.538-4.545c-0.331-0.662-1.654-1.621-3.032-1.94
	c-2.192-0.508-1.665,1.376-3.337-1.389c-0.238-0.396-0.45-1.188-0.45-1.188l1.897,0.708c0,0,3.836-0.209,5.173,1.734
	c0.354,0.513,1.478,0.836,3.021,1.029s6.3,3.019,8.421,4.371c2.12,1.349,5.078,3.534,6.234,5.269
	c1.158,1.736,7.905,10.414,11.762,16.583c3.856,6.171,1.928,9.063,1.734,16.2c-0.192,7.132-2.699,16.193-2.891,17.159
	c-0.193,0.965,0.771,1.928,1.349,3.085c0.579,1.157,0.388,2.893-1.542,4.435c1.93-0.192,3.084,2.314,4.242,3.856
	c1.157,1.544,5.208,9.834,7.136,13.499c1.926,3.663,2.892,10.603,5.978,13.11c3.085,2.508,3.707,3.348,3.791,4.116
	c0.129,1.157-0.116,2.704-1.413,3.47c-2.508,1.479-7.007,6.555-8.164,8.291c-1.157,1.735-0.577,4.564,0.193,3.599
	c0.772-0.964,1.992-2.634,3.663-4.434c1.602-1.726,5.667-5.056,6.942-5.786c1.349-0.771,3.525-1.027,4.369-0.322
	c0.771,0.644,1.093,1.672-1.734,3.536c-2.372,1.563-3.92,3.665-4.692,4.82c-0.77,1.159-1.413,2.763-0.448,2.185
	c0.962-0.579,1.937-0.544,3.083-2.056c1.416-1.864,4.5-4.82,6.815-5.463c0.946-0.265,2.635,0.385,3.792,1.349
	c1.154,0.962,1.154,1.35,2.504,1.736c1.349,0.383,3.278,0.383,9.834,1.734c6.555,1.351,28.41,4.95,44.349,10.479
	c13.262,4.597,21.533,8.483,36.828,15.553c5.758,2.66,15.04,7.714,24.682,13.884c9.641,6.168,17.547,18.123,20.246,22.367
	c2.699,4.242,5.25,7.9,8.869,15.617c6.362,13.562,6.013,17.657,6.268,19.958c0.386,3.47-0.061,4.045-1.639,4.244
	c-0.771,0.094-1.639-0.58-2.604-1.157c-0.966-0.58-2.12-1.254-2.507-2.026c-0.385-0.772-1.317-2.571-2.604-4.499
	c-1.052-1.582-6.553-7.844-10.989-9.962c2.313,1.732,4.437,4.821,6.171,6.554c1.733,1.736,4.818,6.943,5.396,9.063
	c0.58,2.121,1.16,2.315,3.857,3.471c2.7,1.159,4.242,3.472,5.979,4.243c1.735,0.771,7.327,2.892,10.411,4.821
	c3.086,1.926,11.571,7.905,12.726,8.868c1.159,0.967,4.563,2.765,6.492,3.919c1.93,1.16,4.229,3.285,3.471,4.181
	c-0.705,0.832-4.477-1.638-4.948-0.58c-0.386,0.869,2.431,1.82,3.132,2.557c1.062,1.108-0.297,2.297-2.426,1.621
	c-2.825-0.898-16.009-4.52-16.324-2.633c-0.386,2.314,16.647,5.525,18.77,6.103c2.12,0.58,1.348,2.509,0,2.314
	c-1.352-0.192-10.414-2.122-10.606-0.9c-0.213,1.352,6.811,2.379,9.703,3.151c2.892,0.771,3.537,1.575,2.059,2.442
	c1.926,0.386,3.472,1.013,3.985,1.589c1.096,1.231,0.834,2.138-1.285,2.332c-2.122,0.191-9.126,0.062-13.176,0.062
	c-4.051,0-12.408-0.833-18.962-1.796c-6.555-0.967-7.84-1.995-10.349-3.538c-2.508-1.543-7.777-3.148-12.598-6.488
	c-4.118-2.859-5.913-4.117-7.263-5.659c-1.35-1.543-2.635-4.625-4.178-7.326c-1.542-2.699-4.048-6.043-6.941-7.201
	c-2.894-1.156-11.507-1.733-17.161-4.435c-5.012-2.393-9.062-3.277-15.104-10.155c-6.391-7.274-7.135-11.952-7.328-13.881
	s0.268-5.524,2.121-7.907c1.801-2.312,2.444-5.012,1.157-6.555c-2.88-3.456-4.583-0.873-4.436,1.347
	c0.065,0.967,0.354,2.863,0.291,4.919c-0.103,3.283-0.761,6.392-0.965,8.582c-0.321,3.469,2.088,9.383,5.303,13.369
	c3.213,3.985-46.278-0.644-57.076-1.221c-10.797-0.579-50.711,0.192-54.375,0c-3.663-0.192-5.912,0.254-5.848-0.387
	c0.406-4.044,5.72-9.835,8.612-12.342c2.894-2.505,3.407-5.207,4.113-7.584c0.787-2.646,0.621-7.184-1.285-9.383
	c-1.671-1.928-3.369-3.167-4.562-4.692c-1.608-2.057-2.765-3.213-3.15-3.599c-0.955-0.954,2.443,5.271,5.72,8.356
	c3.278,3.084,0.836,9.383-0.129,11.694c-0.965,2.314-3.02,3.664-6.49,6.363c-3.472,2.699-6.62,8.486-7.584,12.534
	c-1.929,2.893-4.628,4.63-6.558,5.978c-1.927,1.351-5.398,5.592-7.518,7.519c-2.121,1.93-5.592,5.98-5.978,8.485
	c-0.388,2.51-2.508,3.472-4.242,4.821c-1.737,1.35-2.894,3.661-3.471,5.207c-0.577,1.54,0.772,3.471-0.577,5.205
	c-1.352,1.733-2.317,2.699-3.665,4.626c-1.352,1.93-1.157,4.631-0.579,7.136c0.579,2.506-0.773,5.208-2.893,5.591
	c-2.123,0.387-2.699,2.122-3.086,3.279c-0.385,1.156-0.193,5.208,0.58,7.906c0.772,2.699,0.964,5.398-0.193,8.29
	c-1.158,2.893-4.049,3.085-5.401,2.122c-1.349-0.966-2.699-1.929-5.013-4.051c-2.313-2.12-7.133-12.148-8.482-14.461
	c-1.35-2.314-3.279-10.411-5.015-19.281c-1.732-8.87,0.579-22.561,1.35-25.646c0.772-3.085,1.734-7.905,2.508-11.763
	c0.77-3.855,5.397-10.605,6.556-13.689c1.157-3.084,0.77-4.437,1.157-8.483c0.384-4.05,3.664-13.886,4.047-21.213
	c-1.926-1.539-2.506-3.084-3.855-4.625c-1.349-1.543-2.123-6.557-2.7-7.907c-0.577-1.349-0.235-2.565-0.772-3.663
	c-1.351-2.764-1.927-2.764-3.276-4.37c-0.785-0.935-1.801-1.672-2.057-3.021c-0.322,0.965,0.129,2.186,0.769,3.088
	c0.863,1.207,1.094,1.347,1.994,2.825c1.076,1.769,1.607,3.021,1.477,5.465c-0.062,1.218,0.9,5.848,2.057,8.29
	c0.708,1.489,2.7,4.435,2.7,6.17c0,1.734-2.056,8.035-2.829,11.312c-0.48,4.242-1.09,11.637-2.055,13.755
	c-0.962,2.12-2.637,3.055-7.455,3.055c-4.82,0-10.992-0.591-13.402-1.93c-2.602-1.445-6.46-1.061-7.521-1.735
	c-1.06-0.673-3.468-3.565-3.567-4.916c-0.096-1.35,0.58-3.856,1.834-4.051c1.253-0.193,3.465-1.688,4.53-1.733
	c1.479-0.064,1.543-0.771,2.99-1.253c1.446-0.483,1.157-0.869,2.504-0.483c1.352,0.388,1.448,0.099,2.797,0.578
	c1.35,0.482,1.32,0.582,3.15,0.582c-1.638,1.347-3.173,2.546-5.142,2.952c-1.863,0.389-0.9,0.516-1.671,0.61
	c2.218,0,1.894,0.324,3.73,0.225c1.83-0.094,6.175-2.544,8.097-5.395c2.249-3.346,1.457-8.181,1.221-10.993
	c-0.067-0.774,0.729,0.135,1.479,0.385c2.121,0.709,4.371,1.027,4.048,0.771C262.005,416.415,257.83,412.616,257.316,411.93z
	 M316.03,261.529c-1.058-2.172-2.987-4.53-4.435-3.855c-1.446,0.674-1.698,2.061-0.964,4.724c0.771,2.794,1.781,3.34,2.667,3.887
	c1.67,1.029,4.15,4.535,4.499,6.041c0.387,1.672,0.387,5.013,1.799,7.202c1.062-2.317,1.02-4.469,0.641-8.229
	C319.853,267.442,317.861,265.289,316.03,261.529z M286.047,247.325c-0.108,1.031,1.446,10.124,2.603,13.338
	c1.432,3.977,3.883,14.824,4.048,16.292c0.256,2.314,1.742,2.567,1.447,0c-0.387-3.342-2.7-13.85-3.471-16.292
	c-0.771-2.445-2.486-10.964-2.892-13.403C287.463,245.35,286.241,245.461,286.047,247.325z M281.098,242.44
	c-0.201,1.304,0.127,12.662,1.349,17.675c1.01,4.143,3.199,17.449,3.295,20.414c0.093,2.964,0.718,3.499,1.016,0.223
	c0.446-4.858-0.523-15.622-1.29-18.74c-0.899-3.664-2.368-16.055-2.603-19.186C282.717,240.846,281.298,241.137,281.098,242.44z
	 M277.627,237.812c-0.351,1.356-1.234,14.14-0.966,18.64c0.27,4.498,0.322,18.2-0.05,21.325c-0.368,3.123,0.84,4.188,1.24,0.721
	c0.519-4.518,0.871-19.26,0.771-22.657c-0.1-3.4,0.803-14.807,1.061-18.127C279.846,235.614,278.205,235.564,277.627,237.812z"/>
</svg>
